<svg xmlns="http://www.w3.org/2000/svg" xmlns:xlink="http://www.w3.org/1999/xlink" width="500" zoomAndPan="magnify" viewBox="0 0 375 374.999991" height="500" preserveAspectRatio="xMidYMid meet" version="1.2"><defs><clipPath id="06a0d1434c"><path d="M 70.636719 7.246094 L 304.113281 7.246094 L 304.113281 239.9375 L 70.636719 239.9375 Z M 70.636719 7.246094 "/></clipPath></defs><g id="6169fda423"><g style="fill:#5e17eb;fill-opacity:1;"><g transform="translate(62.198747, 319.794558)"><path style="stroke:none" d="M 30.625 -22.265625 L 30.625 -14.328125 C 30.625 -9.492188 29.441406 -5.78125 27.078125 -3.1875 C 24.722656 -0.601562 21.242188 0.6875 16.640625 0.6875 C 12.035156 0.6875 8.550781 -0.601562 6.1875 -3.1875 C 3.820312 -5.78125 2.640625 -9.492188 2.640625 -14.328125 L 2.640625 -45.390625 C 2.640625 -50.222656 3.820312 -53.929688 6.1875 -56.515625 C 8.550781 -59.109375 12.035156 -60.40625 16.640625 -60.40625 C 21.242188 -60.40625 24.722656 -59.109375 27.078125 -56.515625 C 29.441406 -53.929688 30.625 -50.222656 30.625 -45.390625 L 30.625 -39.59375 L 21.765625 -39.59375 L 21.765625 -45.984375 C 21.765625 -48.148438 21.320312 -49.671875 20.4375 -50.546875 C 19.550781 -51.429688 18.367188 -51.875 16.890625 -51.875 C 15.410156 -51.875 14.226562 -51.429688 13.34375 -50.546875 C 12.46875 -49.671875 12.03125 -48.148438 12.03125 -45.984375 L 12.03125 -13.734375 C 12.03125 -11.578125 12.46875 -10.070312 13.34375 -9.21875 C 14.226562 -8.363281 15.410156 -7.9375 16.890625 -7.9375 C 18.367188 -7.9375 19.550781 -8.363281 20.4375 -9.21875 C 21.320312 -10.070312 21.765625 -11.578125 21.765625 -13.734375 L 21.765625 -22.265625 Z M 30.625 -22.265625 "/></g></g><g style="fill:#5e17eb;fill-opacity:1;"><g transform="translate(105.712554, 319.794558)"><path style="stroke:none" d="M 23.03125 0 C 22.925781 -0.394531 22.816406 -0.765625 22.703125 -1.109375 C 22.585938 -1.453125 22.484375 -1.878906 22.390625 -2.390625 C 22.304688 -2.898438 22.25 -3.550781 22.21875 -4.34375 C 22.195312 -5.144531 22.1875 -6.144531 22.1875 -7.34375 L 22.1875 -16.71875 C 22.1875 -19.507812 21.703125 -21.472656 20.734375 -22.609375 C 19.765625 -23.742188 18.203125 -24.3125 16.046875 -24.3125 L 12.796875 -24.3125 L 12.796875 0 L 3.40625 0 L 3.40625 -59.734375 L 17.578125 -59.734375 C 22.472656 -59.734375 26.015625 -58.59375 28.203125 -56.3125 C 30.390625 -54.039062 31.484375 -50.597656 31.484375 -45.984375 L 31.484375 -41.296875 C 31.484375 -35.148438 29.4375 -31.113281 25.34375 -29.1875 C 27.726562 -28.21875 29.363281 -26.632812 30.25 -24.4375 C 31.132812 -22.25 31.578125 -19.59375 31.578125 -16.46875 L 31.578125 -7.25 C 31.578125 -5.769531 31.628906 -4.472656 31.734375 -3.359375 C 31.847656 -2.253906 32.132812 -1.132812 32.59375 0 Z M 12.796875 -51.203125 L 12.796875 -32.84375 L 16.46875 -32.84375 C 18.226562 -32.84375 19.601562 -33.296875 20.59375 -34.203125 C 21.59375 -35.117188 22.09375 -36.773438 22.09375 -39.171875 L 22.09375 -45.046875 C 22.09375 -47.210938 21.707031 -48.78125 20.9375 -49.75 C 20.175781 -50.71875 18.972656 -51.203125 17.328125 -51.203125 Z M 12.796875 -51.203125 "/></g></g><g style="fill:#5e17eb;fill-opacity:1;"><g transform="translate(150.591463, 319.794558)"><path style="stroke:none" d="M 12.203125 -19.796875 L 0.34375 -59.734375 L 10.15625 -59.734375 L 17.328125 -32.515625 L 24.484375 -59.734375 L 33.453125 -59.734375 L 21.59375 -19.796875 L 21.59375 0 L 12.203125 0 Z M 12.203125 -19.796875 "/></g></g><g style="fill:#5e17eb;fill-opacity:1;"><g transform="translate(194.958453, 319.794558)"><path style="stroke:none" d="M 17.234375 -59.734375 C 21.953125 -59.734375 25.460938 -58.476562 27.765625 -55.96875 C 30.078125 -53.46875 31.234375 -49.800781 31.234375 -44.96875 L 31.234375 -37.203125 C 31.234375 -32.367188 30.078125 -28.695312 27.765625 -26.1875 C 25.460938 -23.6875 21.953125 -22.4375 17.234375 -22.4375 L 12.796875 -22.4375 L 12.796875 0 L 3.40625 0 L 3.40625 -59.734375 Z M 12.796875 -51.203125 L 12.796875 -30.96875 L 17.234375 -30.96875 C 18.710938 -30.96875 19.847656 -31.363281 20.640625 -32.15625 C 21.441406 -32.957031 21.84375 -34.441406 21.84375 -36.609375 L 21.84375 -45.5625 C 21.84375 -47.726562 21.441406 -49.207031 20.640625 -50 C 19.847656 -50.800781 18.710938 -51.203125 17.234375 -51.203125 Z M 12.796875 -51.203125 "/></g></g><g style="fill:#5e17eb;fill-opacity:1;"><g transform="translate(237.704398, 319.794558)"><path style="stroke:none" d="M 0.859375 -59.734375 L 29.859375 -59.734375 L 29.859375 -51.203125 L 20.046875 -51.203125 L 20.046875 0 L 10.671875 0 L 10.671875 -51.203125 L 0.859375 -51.203125 Z M 0.859375 -59.734375 "/></g></g><g style="fill:#5e17eb;fill-opacity:1;"><g transform="translate(278.999918, 319.794558)"><path style="stroke:none" d="M 12.03125 -13.734375 C 12.03125 -11.578125 12.46875 -10.054688 13.34375 -9.171875 C 14.226562 -8.285156 15.410156 -7.84375 16.890625 -7.84375 C 18.367188 -7.84375 19.550781 -8.285156 20.4375 -9.171875 C 21.320312 -10.054688 21.765625 -11.578125 21.765625 -13.734375 L 21.765625 -45.984375 C 21.765625 -48.148438 21.320312 -49.671875 20.4375 -50.546875 C 19.550781 -51.429688 18.367188 -51.875 16.890625 -51.875 C 15.410156 -51.875 14.226562 -51.429688 13.34375 -50.546875 C 12.46875 -49.671875 12.03125 -48.148438 12.03125 -45.984375 Z M 2.640625 -45.390625 C 2.640625 -50.222656 3.863281 -53.929688 6.3125 -56.515625 C 8.757812 -59.109375 12.285156 -60.40625 16.890625 -60.40625 C 21.503906 -60.40625 25.03125 -59.109375 27.46875 -56.515625 C 29.914062 -53.929688 31.140625 -50.222656 31.140625 -45.390625 L 31.140625 -14.328125 C 31.140625 -9.492188 29.914062 -5.78125 27.46875 -3.1875 C 25.03125 -0.601562 21.503906 0.6875 16.890625 0.6875 C 12.285156 0.6875 8.757812 -0.601562 6.3125 -3.1875 C 3.863281 -5.78125 2.640625 -9.492188 2.640625 -14.328125 Z M 2.640625 -45.390625 "/></g></g><g style="fill:#5e17eb;fill-opacity:1;"><g transform="translate(143.60179, 360.962391)"><path style="stroke:none" d="M 4.671875 0 L 1.203125 0 L 1.203125 -12.96875 C 1.203125 -15.144531 2.226562 -16.234375 4.28125 -16.234375 L 6.109375 -16.234375 C 7.304688 -16.234375 8.160156 -15.835938 8.671875 -15.046875 C 9.148438 -15.835938 10.003906 -16.234375 11.234375 -16.234375 L 13.0625 -16.234375 C 15.101562 -16.234375 16.125 -15.144531 16.125 -12.96875 L 16.125 0 L 12.671875 0 L 12.671875 -13.265625 C 12.671875 -13.398438 12.625 -13.515625 12.53125 -13.609375 C 12.445312 -13.710938 12.335938 -13.765625 12.203125 -13.765625 L 10.875 -13.765625 C 10.738281 -13.765625 10.625 -13.710938 10.53125 -13.609375 C 10.445312 -13.515625 10.40625 -13.398438 10.40625 -13.265625 L 10.40625 0 L 6.9375 0 L 6.9375 -13.265625 C 6.9375 -13.398438 6.890625 -13.515625 6.796875 -13.609375 C 6.710938 -13.710938 6.601562 -13.765625 6.46875 -13.765625 L 5.140625 -13.765625 C 5.003906 -13.765625 4.890625 -13.710938 4.796875 -13.609375 C 4.710938 -13.515625 4.671875 -13.398438 4.671875 -13.265625 Z M 4.671875 0 "/></g></g><g style="fill:#5e17eb;fill-opacity:1;"><g transform="translate(165.458817, 360.962391)"><path style="stroke:none" d="M 7.234375 -12.0625 L 10.03125 -12.0625 L 10.03125 0 L 7.234375 0 L 7.234375 -0.890625 C 6.722656 -0.128906 5.875 0.25 4.6875 0.25 L 4.171875 0.25 C 2.128906 0.25 1.109375 -0.835938 1.109375 -3.015625 L 1.109375 -9.046875 C 1.109375 -11.210938 2.128906 -12.296875 4.171875 -12.296875 L 4.6875 -12.296875 C 5.875 -12.296875 6.722656 -11.921875 7.234375 -11.171875 Z M 6.71875 -2.625 L 6.71875 -9.4375 C 6.71875 -9.570312 6.671875 -9.6875 6.578125 -9.78125 C 6.492188 -9.882812 6.382812 -9.9375 6.25 -9.9375 L 4.890625 -9.9375 C 4.753906 -9.9375 4.640625 -9.882812 4.546875 -9.78125 C 4.460938 -9.6875 4.421875 -9.570312 4.421875 -9.4375 L 4.421875 -2.625 C 4.421875 -2.488281 4.460938 -2.367188 4.546875 -2.265625 C 4.640625 -2.171875 4.753906 -2.125 4.890625 -2.125 L 6.25 -2.125 C 6.382812 -2.125 6.492188 -2.171875 6.578125 -2.265625 C 6.671875 -2.367188 6.71875 -2.488281 6.71875 -2.625 Z M 6.71875 -2.625 "/></g></g><g style="fill:#5e17eb;fill-opacity:1;"><g transform="translate(181.215856, 360.962391)"><path style="stroke:none" d="M 6.25 -12.296875 L 6.890625 -12.296875 L 6.890625 -9.09375 L 5.265625 -9.09375 C 4.703125 -9.09375 4.421875 -8.800781 4.421875 -8.21875 L 4.421875 0 L 1.109375 0 L 1.109375 -12.0625 L 4.125 -12.0625 L 4.125 -10.890625 C 4.601562 -11.828125 5.3125 -12.296875 6.25 -12.296875 Z M 6.25 -12.296875 "/></g></g><g style="fill:#5e17eb;fill-opacity:1;"><g transform="translate(193.070888, 360.962391)"><path style="stroke:none" d="M 10.59375 -12.0625 L 8.125 -6.390625 L 11 0 L 7.6875 0 L 5.40625 -5.015625 L 4.421875 -5.015625 L 4.421875 0 L 1.109375 0 L 1.109375 -15.984375 L 4.421875 -15.984375 L 4.421875 -7.734375 L 5.53125 -7.734375 L 7.34375 -12.0625 Z M 10.59375 -12.0625 "/></g></g><g style="fill:#5e17eb;fill-opacity:1;"><g transform="translate(208.92671, 360.962391)"><path style="stroke:none" d="M 6.96875 -12.296875 C 9.007812 -12.296875 10.03125 -11.210938 10.03125 -9.046875 L 10.03125 -5.140625 L 4.421875 -5.140625 L 4.421875 -2.625 C 4.421875 -2.488281 4.460938 -2.367188 4.546875 -2.265625 C 4.640625 -2.171875 4.753906 -2.125 4.890625 -2.125 L 6.25 -2.125 C 6.382812 -2.125 6.492188 -2.171875 6.578125 -2.265625 C 6.671875 -2.367188 6.71875 -2.488281 6.71875 -2.625 L 6.71875 -3.953125 L 10.03125 -3.953125 L 10.03125 -3.015625 C 10.03125 -0.835938 9.007812 0.25 6.96875 0.25 L 4.171875 0.25 C 2.128906 0.25 1.109375 -0.835938 1.109375 -3.015625 L 1.109375 -9.046875 C 1.109375 -11.210938 2.128906 -12.296875 4.171875 -12.296875 Z M 4.421875 -7.3125 L 6.71875 -7.3125 L 6.71875 -9.53125 C 6.71875 -9.664062 6.671875 -9.78125 6.578125 -9.875 C 6.492188 -9.976562 6.382812 -10.03125 6.25 -10.03125 L 4.890625 -10.03125 C 4.753906 -10.03125 4.640625 -9.976562 4.546875 -9.875 C 4.460938 -9.78125 4.421875 -9.664062 4.421875 -9.53125 Z M 4.421875 -7.3125 "/></g></g><g style="fill:#5e17eb;fill-opacity:1;"><g transform="translate(224.26391, 360.962391)"><path style="stroke:none" d="M 5.515625 -1.90625 L 6.5 -1.90625 L 6.5 0.25 L 4.171875 0.25 C 2.128906 0.25 1.109375 -0.835938 1.109375 -3.015625 L 1.109375 -14.671875 L 4.421875 -14.671875 L 4.421875 -12.0625 L 6.5 -12.0625 L 6.5 -9.65625 L 4.421875 -9.65625 L 4.421875 -3.09375 C 4.421875 -2.625 4.507812 -2.304688 4.6875 -2.140625 C 4.875 -1.984375 5.148438 -1.90625 5.515625 -1.90625 Z M 5.515625 -1.90625 "/></g></g><g clip-rule="nonzero" clip-path="url(#06a0d1434c)"><path style=" stroke:none;fill-rule:evenodd;fill:#5e17eb;fill-opacity:1;" d="M 187.414062 7.171875 C 218.460938 7.171875 247.964844 19.335938 269.898438 41.28125 C 291.910156 63.148438 304.113281 92.558594 304.113281 123.59375 C 304.113281 154.542969 291.910156 183.957031 269.898438 205.820312 C 247.964844 227.769531 218.460938 239.929688 187.414062 239.929688 C 156.289062 239.929688 126.785156 227.769531 104.851562 205.820312 C 82.839844 183.957031 70.636719 154.542969 70.636719 123.59375 C 70.636719 92.558594 82.839844 63.148438 104.851562 41.28125 C 126.785156 19.335938 156.289062 7.171875 187.414062 7.171875 Z M 177.527344 197.503906 C 185.867188 199.664062 194.210938 201.894531 202.550781 203.972656 C 210.503906 206.050781 218.539062 207.90625 226.570312 209.824219 L 227.496094 208.902344 C 220.082031 193.8125 212.746094 178.722656 205.40625 163.628906 C 202.164062 163.859375 198.996094 163.242188 196.214844 161.703125 C 189.035156 171.019531 181.851562 180.335938 174.667969 189.574219 C 176.445312 191.347656 177.601562 194.195312 177.601562 196.660156 C 177.601562 196.96875 177.601562 197.199219 177.527344 197.503906 Z M 264.648438 41.664062 C 259.007812 36.351562 252.753906 31.578125 246.035156 27.5 C 241.320312 29.5 236.6875 31.425781 231.976562 33.503906 C 232.363281 35.660156 231.515625 37.894531 229.582031 39.046875 C 230.125 40.511719 230.664062 41.972656 231.207031 43.511719 C 233.90625 43.589844 236.457031 44.898438 237.847656 47.210938 C 246.804688 45.363281 255.765625 43.511719 264.648438 41.664062 Z M 241.863281 25.109375 C 225.179688 15.871094 206.488281 11.097656 187.414062 11.097656 C 187.335938 11.097656 187.257812 11.097656 187.183594 11.097656 C 192.046875 13.640625 196.835938 16.101562 201.625 18.644531 C 208.269531 22.1875 214.832031 25.804688 221.394531 29.421875 C 221.707031 29.191406 221.9375 29.039062 222.324219 28.808594 C 223.324219 28.269531 224.40625 28.113281 225.566406 28.113281 C 227.1875 28.191406 228.886719 28.882812 230.125 30.035156 C 233.984375 28.421875 237.925781 26.730469 241.863281 25.109375 Z M 166.019531 13.175781 C 160.074219 14.257812 154.28125 15.871094 148.644531 17.949219 C 158.835938 28.65625 168.800781 39.355469 178.839844 50.214844 C 179.148438 50.058594 179.457031 49.980469 179.765625 49.828125 L 172.507812 15.023438 C 170.265625 15.023438 167.796875 14.410156 166.019531 13.175781 Z M 144.703125 19.492188 C 144.164062 19.722656 143.546875 19.953125 142.925781 20.179688 C 142.464844 20.566406 141.921875 20.953125 141.382812 21.261719 C 136.363281 28.039062 131.261719 34.734375 126.320312 41.511719 C 121.300781 48.441406 116.359375 55.445312 111.414062 62.453125 C 112.417969 63.53125 113.191406 64.996094 113.652344 66.382812 C 123.308594 64.84375 132.960938 63.300781 142.695312 61.839844 C 153.042969 60.300781 163.394531 58.914062 173.742188 57.523438 C 173.972656 55.757812 174.667969 54.136719 175.75 52.753906 C 165.480469 41.585938 155.128906 30.5 144.703125 19.492188 Z M 108.25 60.453125 C 112.960938 53.832031 117.59375 47.132812 122.382812 40.589844 C 126.324219 35.121094 130.414062 29.652344 134.507812 24.265625 C 124.621094 29.5 115.585938 36.199219 107.632812 44.050781 C 103.304688 48.367188 99.289062 53.0625 95.738281 58.066406 L 98.902344 61.992188 C 101.605469 59.914062 105.003906 59.21875 108.25 60.453125 Z M 88.863281 68.769531 C 90.71875 68.921875 92.570312 69.074219 94.347656 69.230469 C 94.65625 67.691406 95.273438 66.226562 96.125 64.84375 C 95.273438 63.6875 94.347656 62.53125 93.421875 61.378906 C 91.796875 63.761719 90.253906 66.226562 88.863281 68.769531 Z M 86.855469 72.617188 C 81.21875 83.628906 77.429688 95.5625 75.734375 107.804688 C 82.066406 117.125 88.398438 126.363281 94.886719 135.527344 C 95.894531 125.4375 96.894531 115.273438 98.128906 105.1875 C 99.058594 97.410156 100.0625 89.636719 101.144531 81.933594 C 97.976562 81.007812 95.660156 78.316406 94.964844 75.082031 C 94.886719 74.464844 94.8125 73.847656 94.8125 73.15625 C 92.183594 72.925781 89.480469 72.773438 86.855469 72.617188 Z M 92.957031 139.453125 C 86.855469 130.90625 80.910156 122.359375 75.039062 113.65625 C 74.730469 116.96875 74.574219 120.277344 74.574219 123.59375 C 74.574219 130.054688 75.191406 136.449219 76.273438 142.839844 C 81.835938 141.683594 87.394531 140.609375 92.957031 139.453125 Z M 76.96875 146.691406 C 78.59375 154.15625 80.910156 161.476562 83.996094 168.480469 L 84.921875 165.859375 C 82.992188 163.859375 81.910156 161.242188 81.835938 158.46875 C 81.601562 152.773438 85.773438 147.769531 91.414062 148.226562 C 92.03125 146.691406 92.648438 145.070312 93.1875 143.53125 C 87.785156 144.613281 82.375 145.609375 76.96875 146.691406 Z M 86.238281 173.410156 C 91.71875 184.339844 98.980469 194.429688 107.632812 203.050781 C 117.59375 212.90625 129.101562 220.761719 141.613281 226.300781 C 141.304688 226.148438 141.070312 225.917969 140.765625 225.691406 C 137.210938 222.375 136.128906 217.214844 139.0625 213.292969 C 131.878906 205.898438 124.621094 198.433594 117.515625 190.882812 C 110.488281 183.265625 103.539062 175.5625 96.664062 167.863281 C 94.039062 169.558594 90.871094 169.558594 88.089844 168.25 C 87.472656 169.941406 86.855469 171.636719 86.238281 173.410156 Z M 147.097656 228.613281 C 159.765625 233.46875 173.433594 236.003906 187.414062 236.003906 C 209.117188 236.003906 230.199219 229.847656 248.351562 218.140625 L 236.765625 215.988281 C 235.527344 217.679688 233.597656 218.757812 231.433594 218.835938 C 229.351562 218.910156 227.265625 218.066406 226.105469 216.292969 C 225.953125 216.0625 225.796875 215.835938 225.722656 215.523438 C 214.445312 216.605469 203.167969 217.753906 191.816406 218.683594 C 180.617188 219.527344 169.417969 220.144531 158.21875 220.761719 C 158.066406 222.457031 157.445312 223.996094 156.363281 225.304688 C 154.046875 228.074219 150.496094 229.078125 147.097656 228.613281 Z M 252.828125 215.136719 C 256.925781 212.214844 260.863281 208.980469 264.570312 205.515625 L 258.699219 190.269531 C 256.84375 190.730469 254.917969 190.578125 253.140625 189.886719 C 247.808594 196.429688 242.480469 202.976562 237.074219 209.441406 C 237.691406 210.289062 237.925781 211.210938 237.925781 212.214844 Z M 262.328125 188.578125 C 264.027344 193.195312 265.804688 197.890625 267.582031 202.589844 C 273.914062 196.195312 279.476562 189.117188 284.109375 181.414062 C 278.085938 181.953125 272.140625 182.335938 266.191406 182.722656 C 265.574219 185.03125 264.261719 187.113281 262.328125 188.578125 Z M 286.425781 177.335938 C 289.285156 172.101562 291.757812 166.628906 293.765625 161.011719 L 280.402344 150.617188 C 279.167969 151.617188 277.621094 152.003906 276.074219 151.773438 C 271.984375 159.316406 267.890625 166.707031 263.71875 174.179688 C 265.109375 175.410156 265.960938 177.023438 266.269531 178.875 C 272.988281 178.410156 279.707031 177.871094 286.425781 177.335938 Z M 295.074219 157.007812 C 298.320312 146.53125 300.019531 135.679688 300.175781 124.742188 L 298.167969 118.585938 C 297.394531 118.585938 296.777344 118.585938 296.003906 118.351562 C 291.292969 126.210938 286.582031 133.988281 281.792969 141.835938 C 282.949219 143.378906 283.183594 145.535156 282.566406 147.382812 C 286.738281 150.539062 290.90625 153.769531 295.074219 157.007812 Z M 298.550781 104.417969 C 296.699219 93.945312 293.457031 83.785156 288.742188 74.234375 L 280.324219 75.46875 C 280.554688 80.78125 275.847656 84.78125 270.59375 83.785156 C 269.046875 88.25 267.582031 92.714844 265.960938 97.179688 C 267.195312 98.335938 267.65625 99.257812 267.890625 100.953125 C 276.074219 103.265625 284.109375 105.496094 292.222656 107.882812 C 293.457031 105.496094 295.925781 103.953125 298.550781 104.417969 Z M 286.8125 70.460938 C 284.496094 66.152344 281.867188 61.996094 279.011719 57.992188 L 276.074219 67.382812 C 277.546875 68.382812 278.703125 69.847656 279.398438 71.464844 Z M 276.15625 54.21875 C 273.605469 50.984375 270.902344 47.902344 268.046875 44.976562 C 258.3125 46.898438 248.734375 48.902344 239.007812 50.984375 C 239.082031 51.597656 239.082031 51.984375 238.925781 52.597656 C 247.652344 57.757812 256.226562 62.917969 264.878906 68.152344 C 266.578125 66.304688 268.429688 65.382812 271.210938 65.535156 C 271.675781 65.535156 272.0625 65.613281 272.523438 65.6875 Z M 95.121094 149.382812 C 95.8125 149.765625 96.429688 150.230469 97.050781 150.691406 C 101.066406 146.996094 105.003906 143.300781 109.097656 139.605469 C 106.085938 134.371094 107.941406 126.980469 113.5 124.359375 C 111.800781 116.890625 110.101562 109.347656 108.480469 101.800781 C 107.167969 95.949219 106.011719 90.019531 104.773438 84.089844 C 103.769531 91.25 102.84375 98.414062 101.917969 105.574219 C 100.527344 117.125 99.445312 128.746094 98.285156 140.375 L 98.519531 140.683594 L 98.210938 141.378906 L 98.054688 142.609375 L 97.667969 142.6875 C 96.820312 144.917969 95.96875 147.148438 95.121094 149.382812 Z M 117.359375 123.359375 C 119.601562 123.207031 121.917969 123.976562 123.769531 125.285156 C 134.507812 114.277344 145.164062 103.339844 155.980469 92.484375 C 154.589844 90.328125 153.972656 87.863281 154.28125 85.324219 C 140.765625 81.707031 127.25 78.160156 113.808594 74.621094 C 112.804688 77.46875 110.796875 79.855469 108.171875 81.164062 C 109.484375 87.785156 110.875 94.332031 112.265625 100.875 C 113.886719 108.34375 115.660156 115.890625 117.359375 123.359375 Z M 114.351562 70.230469 C 114.351562 70.382812 114.351562 70.539062 114.351562 70.695312 C 128.097656 74.234375 141.769531 77.773438 155.4375 81.472656 C 160.613281 71.308594 176.445312 74.542969 176.367188 86.167969 C 176.292969 95.101562 166.097656 100.261719 158.914062 95.332031 C 148.023438 106.265625 137.289062 117.125 126.628906 128.132812 C 128.175781 130.597656 128.792969 133.601562 128.25 136.523438 C 138.0625 140.609375 147.792969 144.613281 157.601562 148.613281 C 158.296875 147.765625 159.144531 147.148438 160.148438 146.765625 C 159.222656 136.21875 158.296875 125.746094 157.445312 115.199219 C 152.425781 114.117188 150.496094 107.652344 154.28125 103.878906 C 156.671875 101.417969 161 101.105469 163.546875 103.570312 C 177.914062 95.179688 192.355469 86.863281 206.800781 78.625 C 206.492188 77.007812 206.492188 75.3125 207.03125 73.695312 C 201.625 70.695312 196.21875 67.691406 190.890625 64.609375 C 185.867188 69.925781 176.832031 68.382812 174.207031 61.453125 C 163.855469 62.917969 153.507812 64.226562 143.160156 65.765625 C 133.503906 67.226562 123.925781 68.769531 114.351562 70.230469 Z M 155.4375 213.210938 C 156.519531 214.292969 157.292969 215.601562 157.753906 216.988281 C 168.957031 216.371094 180.230469 215.753906 191.429688 214.910156 C 201.007812 214.140625 210.585938 213.210938 220.082031 212.289062 C 213.824219 210.828125 207.570312 209.285156 201.3125 207.746094 C 193.050781 205.667969 184.710938 203.4375 176.445312 201.277344 C 173.742188 206.4375 167.101562 207.976562 161.925781 205.441406 C 159.765625 208.058594 157.601562 210.59375 155.4375 213.210938 Z M 192.820312 136.292969 C 182.855469 128.902344 172.816406 121.511719 162.851562 114.042969 C 162.464844 114.347656 162 114.660156 161.539062 114.8125 C 162.390625 125.359375 163.316406 135.914062 164.242188 146.378906 C 166.328125 146.917969 168.105469 148.386719 168.957031 150.3125 L 188.03125 148.613281 C 187.800781 143.996094 189.574219 139.527344 192.820312 136.292969 Z M 171.347656 187.265625 C 178.609375 177.953125 185.792969 168.632812 192.894531 159.316406 C 191.042969 157.542969 189.574219 155.007812 188.804688 152.617188 C 182.316406 153.234375 175.828125 153.851562 169.339844 154.390625 C 168.335938 159.46875 161.847656 161.394531 158.066406 157.625 C 156.753906 156.234375 155.980469 154.308594 156.136719 152.390625 C 146.324219 148.382812 136.59375 144.378906 126.863281 140.222656 C 125.78125 141.988281 124.316406 143.296875 122.460938 144.226562 C 124.316406 151.234375 126.167969 158.160156 128.019531 165.089844 C 131.804688 165.015625 135.359375 166.863281 137.519531 169.941406 C 139.453125 172.714844 139.992188 176.101562 139.140625 179.261719 C 145.476562 182.800781 151.808594 186.265625 158.21875 189.726562 C 161.539062 186.035156 166.871094 185.03125 171.347656 187.265625 Z M 118.675781 145.152344 C 116.050781 145.304688 113.578125 144.453125 111.570312 142.6875 C 107.554688 146.378906 103.539062 150.078125 99.523438 153.851562 C 101.53125 157.390625 101.53125 161.78125 99.367188 165.246094 C 106.316406 172.945312 113.269531 180.722656 120.375 188.34375 C 127.402344 195.890625 134.585938 203.28125 141.691406 210.675781 C 138.136719 202.433594 134.585938 194.269531 131.109375 186.113281 C 124.003906 186.804688 117.824219 181.027344 118.597656 173.792969 C 118.832031 171.636719 119.757812 169.558594 121.304688 168.015625 C 122.152344 167.171875 123.078125 166.476562 124.160156 165.9375 C 122.304688 159.011719 120.453125 152.15625 118.675781 145.152344 Z M 145.476562 209.671875 C 147.945312 209.367188 150.109375 209.75 152.273438 210.828125 C 154.4375 208.210938 156.519531 205.667969 158.683594 203.050781 C 156.210938 200.355469 155.128906 196.660156 156.289062 193.195312 C 149.953125 189.730469 143.625 186.269531 137.289062 182.722656 C 136.441406 183.570312 135.898438 184.261719 134.816406 184.800781 C 138.371094 193.121094 141.921875 201.355469 145.476562 209.671875 Z M 247.035156 116.425781 C 238.695312 106.035156 230.351562 95.640625 221.9375 85.246094 C 217.457031 88.015625 211.355469 86.632812 208.421875 82.398438 C 194.054688 90.558594 179.847656 98.796875 165.554688 107.113281 C 165.632812 107.574219 165.710938 108.113281 165.710938 108.578125 C 165.710938 109.347656 165.554688 110.117188 165.324219 110.808594 C 175.597656 118.433594 185.945312 126.132812 196.21875 133.753906 C 203.632812 129.519531 213.132812 131.75 217.6875 138.914062 C 226.878906 134.371094 235.992188 129.828125 245.105469 125.285156 C 244.410156 122.203125 245.027344 118.890625 247.035156 116.425781 Z M 227.421875 44.433594 C 226.878906 42.972656 226.339844 41.511719 225.796875 40.046875 C 224.71875 40.046875 223.40625 39.507812 222.632812 39.046875 C 220.699219 37.96875 219.464844 36.121094 219.3125 33.886719 C 219.3125 33.503906 219.3125 33.042969 219.386719 32.578125 C 212.746094 28.960938 206.179688 25.339844 199.539062 21.800781 C 193.203125 18.414062 186.792969 15.179688 180.382812 11.867188 C 179.148438 12.945312 177.992188 13.714844 176.445312 14.332031 C 178.917969 25.878906 181.3125 37.507812 183.703125 49.058594 C 187.566406 49.132812 191.042969 51.289062 192.585938 54.757812 C 203.167969 52.984375 213.671875 51.289062 224.175781 49.675781 C 224.40625 47.363281 225.335938 45.589844 227.421875 44.433594 Z M 231.125 207.207031 L 233.832031 207.359375 C 239.316406 200.820312 244.71875 194.195312 250.128906 187.496094 C 247.808594 184.726562 247.652344 181.027344 249.199219 177.792969 L 218.308594 155.160156 C 216.453125 158.625 213.285156 161.394531 209.578125 162.703125 Z M 193.359375 58.605469 C 193.359375 59.53125 193.203125 60.375 192.894531 61.222656 C 198.304688 64.226562 203.710938 67.226562 209.117188 70.308594 C 211.585938 67.535156 215.371094 66.535156 218.925781 67.535156 C 221.394531 63.457031 223.941406 59.375 226.417969 55.292969 L 225.105469 53.523438 C 214.523438 55.140625 203.941406 56.835938 193.359375 58.605469 Z M 271.90625 143.144531 C 267.964844 139.066406 263.953125 135.0625 259.9375 131.058594 C 255.765625 134.140625 249.972656 133.136719 246.804688 128.980469 C 237.769531 133.523438 228.652344 138.066406 219.464844 142.535156 C 220.390625 145.382812 220.542969 148.304688 219.851562 151.15625 C 230.433594 159.011719 241.011719 166.789062 251.671875 174.558594 C 254.0625 172.558594 257.308594 171.402344 260.398438 172.328125 C 264.570312 164.863281 268.664062 157.390625 272.757812 149.847656 C 271.828125 148.609375 271.210938 147.6875 271.289062 145.761719 C 271.289062 144.839844 271.519531 143.917969 271.90625 143.144531 Z M 291.445312 111.65625 C 283.335938 109.421875 275.226562 107.113281 267.039062 104.878906 C 265.960938 106.652344 264.414062 107.421875 262.328125 107.421875 L 259.78125 114.429688 C 264.105469 117.429688 265.339844 123.59375 262.636719 128.058594 C 266.65625 132.0625 270.59375 136.140625 274.53125 140.144531 C 275.769531 139.453125 277.3125 139.21875 278.703125 139.527344 C 283.492188 131.75 288.203125 123.976562 292.914062 116.042969 C 292.066406 114.890625 291.523438 112.8125 291.445312 111.65625 Z M 224.796875 82.472656 C 233.289062 92.945312 241.707031 103.339844 250.050781 113.890625 C 251.980469 112.886719 253.988281 112.582031 256.074219 112.964844 L 258.621094 105.960938 C 256.226562 103.800781 255.996094 99.644531 258.238281 97.332031 C 259.320312 96.179688 260.863281 95.488281 262.328125 95.5625 L 267.042969 82.164062 C 263.800781 79.78125 261.867188 75.464844 263.027344 71.617188 C 254.375 66.304688 245.726562 61.070312 236.996094 55.910156 C 235.222656 57.757812 232.285156 58.21875 229.816406 57.527344 L 222.554688 69.386719 C 226.570312 72.464844 227.730469 78.238281 224.796875 82.472656 Z M 224.796875 82.472656 "/></g></g></svg>